HIERARCHY
ROOT Hips
{
  OFFSET 15.0529 93.0842 -4.53073
  CHANNELS 6 Xposition Yposition Zposition Zrotation Xrotation Yrotation
  JOINT ToSpine
  {
    OFFSET -2.69724 7.43032 -0.144315
    CHANNELS 3 Zrotation Xrotation Yrotation
    JOINT Spine
    {
      OFFSET -0.0310711 10.7595 1.96963
      CHANNELS 3 Zrotation Xrotation Yrotation
      JOINT Spine1
      {
        OFFSET 13.1342 3.43533 0.764692
        CHANNELS 3 Zrotation Xrotation Yrotation
        JOINT Neck
        {
          OFFSET 29.8703 7.82586 -0.130764
          CHANNELS 3 Zrotation Xrotation Yrotation
          JOINT Head
          {
            OFFSET 9.52751 0.295786 -0.907742
            CHANNELS 3 Zrotation Xrotation Yrotation
            End Site
            {
              OFFSET 16.4037 0.713936 2.7358
            }
          }
        }
        JOINT LeftShoulder
        {
          OFFSET 27.5574 4.95586 2.47156
          CHANNELS 3 Zrotation Xrotation Yrotation
          JOINT LeftArm
          {
            OFFSET 1.20734 -0.998971 20.1238
            CHANNELS 3 Zrotation Xrotation Yrotation
            JOINT LeftForeArm
            {
              OFFSET 26.8049 -0.0536703 -0.155908
              CHANNELS 3 Zrotation Xrotation Yrotation
              JOINT LeftHand
              {
                OFFSET 26.6817 0 0.320147
                CHANNELS 3 Zrotation Xrotation Yrotation
                End Site
                {
                  OFFSET 18.6119 0 0.382219
                }
              }
            }
          }
        }
        JOINT RightShoulder
        {
          OFFSET 27.5927 4.71444 -2.65209
          CHANNELS 3 Zrotation Xrotation Yrotation
          JOINT RightArm
          {
            OFFSET 2.83739 -1.17114 -18.7564
            CHANNELS 3 Zrotation Xrotation Yrotation
            JOINT RightForeArm
            {
              OFFSET 28.839 -0.0548439 1.22491
              CHANNELS 3 Zrotation Xrotation Yrotation
              JOINT RightHand
              {
                OFFSET 26.5114 0 -0.101894
                CHANNELS 3 Zrotation Xrotation Yrotation
                End Site
                {
                  OFFSET 18.2168 0 0
                }
              }
            }
          }
        }
      }
    }
  }
  JOINT LeftUpLeg
  {
    OFFSET -4.76168 -1.9167 -10.2353
    CHANNELS 3 Zrotation Xrotation Yrotation
    JOINT LeftLeg
    {
      OFFSET 2.55951 -42.0585 -8.02213
      CHANNELS 3 Zrotation Xrotation Yrotation
      JOINT LeftFoot
      {
        OFFSET 3.16357 -42.5282 -3.95426
        CHANNELS 3 Zrotation Xrotation Yrotation
        JOINT LeftToeBase
        {
          OFFSET 0.346054 -6.02161 12.8035
          CHANNELS 3 Zrotation Xrotation Yrotation
          End Site
          {
            OFFSET 0.134235 -1.35082 5.13018
          }
        }
      }
    }
  }
  JOINT RightUpLeg
  {
    OFFSET -4.94151 -1.41743 10.6446
    CHANNELS 3 Zrotation Xrotation Yrotation
    JOINT RightLeg
    {
      OFFSET -2.56294 -42.0364 -7.94377
      CHANNELS 3 Zrotation Xrotation Yrotation
      JOINT RightFoot
      {
        OFFSET -3.0952 -42.555 -4.02241
        CHANNELS 3 Zrotation Xrotation Yrotation
        JOINT RightToeBase
        {
          OFFSET -0.0828122 -6.13587 12.8035
          CHANNELS 3 Zrotation Xrotation Yrotation
          End Site
          {
            OFFSET -0.131328 -1.35082 5.13018
          }
        }
      }
    }
  }
}
MOTION
Frames:	8
Frame Time:	0.0333333
14.9565 93.0753 -4.5632 71.4735 -38.3693 -11.4551 -70.1915 0 88.8779 72.507 70.5786 9.6125 5.36882 19.2738 5.38574 -122.499 33.5362 154.823 172.033 77.6434 -147.896 0.236517 -15.796 -24.3657 -66.0225 38.705 -138.092 26.0258 -6.67003 -102.626 0.420957 0.000574661 0.358661 -2.08245 7.19551 43.2968 -130.186 -9.72946 90.407 17.4637 -4.79526 75.0352 0.58676 0.00033094 0.0646654 -51.4103 11.032 99.2671 -2.7925 44.2762 -4.4895 2.01596 -16.974 -1.40591 2.11331 -7.72872 12.0953 -42.2173 -11.6907 82.0429 -0.0201672 26.563 8.43865 -0.955181 2.7874 0.0780304 -0.970824 -1.35932 7.30425 
15.0102 93.0801 -4.58684 71.6787 -38.445 -11.485 -70.1915 0 88.8779 72.8153 70.614 9.2308 5.43495 19.3025 5.3123 -122.67 33.5123 154.917 172.001 77.5657 -147.799 0.259532 -15.6791 -24.2418 -66.0144 38.6802 -138.272 26.1757 -6.72053 -102.638 0.420957 0.000574661 0.358661 -2.0799 7.19797 43.2483 -130.158 -9.85415 90.4554 17.3164 -4.7416 75.0676 0.58676 0.00033094 0.0646654 -51.7277 10.9408 99.5313 -2.81713 44.1886 -4.78908 1.6869 -17.1486 -1.43237 1.92483 -7.49529 12.4546 -42.2468 -11.9356 81.9946 0.0214039 26.8804 8.56631 -1.52945 2.91135 0.160728 -0.817322 -2.04468 7.20314 
14.9727 93.1163 -4.54388 71.294 -38.3756 -11.5709 -70.1915 0 88.8779 71.662 70.5817 10.5954 5.55554 19.4567 4.96846 -121.977 32.7475 153.982 175.145 77.3288 -149.451 0.236787 -15.965 -23.8961 -65.9847 38.8633 -138.389 26.3392 -6.67624 -102.463 0.420957 0.000574661 0.358661 -2.05125 6.98203 43.7608 -130.202 -9.49645 90.5946 16.8886 -4.59353 75.1383 0.58676 0.00033094 0.0646654 -51.2401 11.1108 99.3483 -2.86243 44.5181 -4.79175 -0.619142 -18.3089 -1.58099 1.25033 -6.39313 12.4567 -42.1155 -11.5413 82.3213 0.0233367 26.9184 8.80734 -2.60048 3.94773 0.26756 0.0912157 -4.67011 3.70192 
15.0307 93.0852 -4.55112 71.4346 -38.3388 -11.637 -70.1915 0 88.8779 71.6901 70.6444 10.2939 5.55008 19.4488 5.13632 -122.225 32.8905 154.181 174.24 77.3311 -148.873 0.230327 -15.9903 -23.9478 -65.831 38.9501 -138.39 26.2803 -6.68909 -102.52 0.420957 0.000574661 0.358661 -1.99194 7.03531 42.713 -130.525 -10.4525 89.6534 17.5593 -4.70756 75.3639 0.58676 0.00033094 0.0646654 -51.3497 10.9091 99.3419 -2.92694 44.5386 -5.30855 0.158482 -17.4056 -1.48169 1.9219 -7.71402 13.5165 -42.2966 -11.8224 82.0776 0.214867 26.9074 9.99511 -2.92673 4.72023 0.284098 0.571317 -6.30795 1.63553 
15.0316 93.0968 -4.53476 71.3906 -38.2984 -11.695 -70.1915 0 88.8779 71.5374 70.6883 10.4365 5.51571 19.5384 4.99361 -121.916 32.6615 153.313 176.773 77.5297 -151.083 0.22355 -16.1312 -23.7067 -65.4849 39.012 -138.662 26.1736 -6.73396 -102.664 0.420957 0.000574661 0.358661 -1.9254 6.98375 41.9924 -130.759 -11.2609 88.7969 17.4117 -4.58823 75.5853 0.58676 0.00033094 0.0646654 -51.3337 10.8467 99.343 -2.92451 44.53 -5.29638 0.0542242 -17.6227 -1.50276 1.6501 -7.28185 13.5189 -42.318 -11.8181 82.1872 0.202672 26.8102 9.70836 -4.52056 4.99521 0.543728 0.746716 -7.77237 1.95132 
15.0671 93.0742 -4.53095 71.3923 -38.2573 -11.7313 -70.1915 0 88.8779 70.9881 70.7123 10.7741 5.66128 19.5282 5.25027 -122.039 32.7348 153.351 176.906 77.575 -151.194 0.211953 -16.137 -23.9039 -65.6461 38.6769 -138.63 25.9469 -6.57902 -102.497 0.420957 0.000574661 0.358661 -1.89889 6.95211 41.748 -130.77 -11.4224 88.6965 17.1812 -4.50832 75.629 0.58676 0.00033094 0.0646654 -51.3018 10.7833 99.3282 -2.97105 44.6022 -5.60568 0.357712 -17.2645 -1.46562 1.92456 -7.84226 14.1091 -42.2174 -11.9538 82.1796 0.228374 26.9919 9.49071 -3.83632 4.623 0.441799 0.483637 -6.64853 2.91414 
15.1171 93.052 -4.51181 71.3811 -38.2908 -11.7547 -70.1915 0 88.8779 71.4041 70.7438 10.378 5.41279 19.5419 5.23949 -121.892 32.6614 153.273 176.598 77.5338 -150.873 0.230329 -16.0384 -23.8222 -65.3178 39.062 -138.807 26.1917 -6.77783 -102.737 0.420957 0.000574661 0.358661 -1.9083 6.91147 42.0469 -130.648 -11.1793 88.8428 17.0095 -4.47832 75.5735 0.58676 0.00033094 0.0646654 -51.3686 10.7515 99.3022 -2.90767 44.5208 -5.16757 0.556701 -17.2788 -1.46201 2.03566 -7.87373 13.4 -42.1336 -11.8993 82.3237 0.177971 27.1929 9.35987 -4.12297 4.52196 0.494972 0.637388 -7.24255 2.27648 
15.1369 93.0814 -4.4454 71.4085 -38.2536 -11.7541 -70.1915 0 88.8779 71.2649 70.6962 10.5169 5.43748 19.5421 5.09132 -121.841 32.5821 153.123 176.799 77.5166 -151.011 0.242356 -16.0039 -23.6879 -65.2784 39.1036 -138.901 26.3624 -6.7955 -102.674 0.420957 0.000574661 0.358661 -1.90051 6.85161 42.1835 -130.811 -11.2656 88.8364 17.527 -4.63866 75.5341 0.58676 0.00033094 0.0646654 -51.4362 10.6538 99.1865 -2.89569 44.4816 -5.11171 0.136744 -17.6162 -1.4999 1.74695 -7.44083 13.5403 -42.1762 -11.8658 82.4085 0.162412 27.2768 9.88757 -4.46412 4.77247 0.542478 0.71032 -7.33139 1.6815 
